HIERARCHY
ROOT Hips
{
	OFFSET 0.000000 0.000000 0.000000
	CHANNELS 6 Xposition Yposition Zposition Zrotation Yrotation Xrotation 
	JOINT LeftUpLeg_virtual
	{
		OFFSET 0.000000 0.000000 0.000000
		CHANNELS 3 Zrotation Yrotation Xrotation
		JOINT LeftUpLeg
		{
			OFFSET 10.205400 -3.823500 0.155100
			CHANNELS 3 Zrotation Yrotation Xrotation
			JOINT LeftLeg
			{
				OFFSET 0.708757 -12.982077 0.567790
				CHANNELS 3 Zrotation Yrotation Xrotation
				JOINT LeftFoot
				{
					OFFSET -0.708756 -10.717838 -2.184338
					CHANNELS 3 Zrotation Yrotation Xrotation
					JOINT LeftToeBase
					{
						OFFSET 0.108149 -7.191104 7.560241
						CHANNELS 3 Zrotation Yrotation Xrotation
						End Site
						{
							OFFSET 0.000000 0.000000 0.000000
						}
					}
				}
			}
		}
	}
	JOINT RightUpLeg_virtual
	{
		OFFSET 0.000000 0.000000 0.000000
		CHANNELS 3 Zrotation Yrotation Xrotation
		JOINT RightUpLeg
		{
			OFFSET -10.205400 -3.823500 0.005500
			CHANNELS 3 Zrotation Yrotation Xrotation
			JOINT RightLeg
			{
				OFFSET -0.708756 -12.982134 0.610632
				CHANNELS 3 Zrotation Yrotation Xrotation
				JOINT RightFoot
				{
					OFFSET 0.708754 -10.717769 -1.945823
					CHANNELS 3 Zrotation Yrotation Xrotation
					JOINT RightToeBase
					{
						OFFSET -0.108140 -7.191069 7.372968
						CHANNELS 3 Zrotation Yrotation Xrotation
						End Site
						{
							OFFSET 0.000000 0.000000 0.000000
						}
					}
				}
			}
		}
	}
	JOINT Spine_virtual
	{
		OFFSET 0.000000 0.000000 0.000000
		CHANNELS 3 Zrotation Yrotation Xrotation
		JOINT Spine
		{
			OFFSET 0.000000 6.876099 0.125700
			CHANNELS 3 Zrotation Yrotation Xrotation
			JOINT Spine1
			{
				OFFSET 0.000000 8.022060 0.146608
				CHANNELS 3 Zrotation Yrotation Xrotation
				JOINT Spine2
				{
					OFFSET 0.000000 9.168068 0.167552
					CHANNELS 3 Zrotation Yrotation Xrotation
					JOINT Neck_virtual
					{
						OFFSET 0.000000 0.000000 0.000000
						CHANNELS 3 Zrotation Yrotation Xrotation
						JOINT Neck
						{
							OFFSET 0.000000 10.314075 0.188496
							CHANNELS 3 Zrotation Yrotation Xrotation
							JOINT Head
							{
								OFFSET 0.000000 7.643700 -2.377400
								CHANNELS 3 Zrotation Yrotation Xrotation
								End Site
								{
									OFFSET 0.000000 0.000000 0.000000
								}
							}
						}
					}
					JOINT LeftShoulder_virtual
					{
						OFFSET 0.000000 0.000000 0.000000
						CHANNELS 3 Zrotation Yrotation Xrotation
						JOINT LeftShoulder
						{
							OFFSET 4.392200 8.824978 0.174984
							CHANNELS 3 Zrotation Yrotation Xrotation
							JOINT LeftArm
							{
								OFFSET 8.771219 -2.981674 -0.026999
								CHANNELS 3 Zrotation Yrotation Xrotation
								JOINT LeftForeArm
								{
									OFFSET 8.512804 0.000000 -0.000000
									CHANNELS 3 Zrotation Yrotation Xrotation
									JOINT LeftHand
									{
										OFFSET 18.484802 0.000000 -0.000000
										CHANNELS 3 Zrotation Yrotation Xrotation
										End Site
										{
											OFFSET 0.000000 0.000000 0.000000
										}
									}
								}
							}
						}
					}
					JOINT RightShoulder_virtual
					{
						OFFSET 0.000000 0.000000 0.000000
						CHANNELS 3 Zrotation Yrotation Xrotation
						JOINT RightShoulder
						{
							OFFSET -4.392200 8.824993 0.141379
							CHANNELS 3 Zrotation Yrotation Xrotation
							JOINT RightArm
							{
								OFFSET -8.771282 -2.981682 -0.094208
								CHANNELS 3 Zrotation Yrotation Xrotation
								JOINT RightForeArm
								{
									OFFSET -8.494598 0.000000 0.000000
									CHANNELS 3 Zrotation Yrotation Xrotation
									JOINT RightHand
									{
										OFFSET -18.483803 0.000000 0.000001
										CHANNELS 3 Zrotation Yrotation Xrotation
										End Site
										{
											OFFSET 0.000000 0.000000 0.000000
										}
									}
								}
							}
						}
					}
				}
			}
		}
	}
}
MOTION
Frames: 13
Frame Time: 0.033333
2.698327 34.575161 -3.670268 179.382105 3.175622 -179.211924 -2.319967 -3.272485 8.612769 -7.357061 5.239430 -26.403681 16.542650 9.263546 24.047814 -4.397020 5.677248 7.470159 0.000000 0.000000 0.000000 4.178288 0.832270 9.063285 -0.423433 7.285046 -23.597093 -7.214052 6.415753 20.869599 11.006139 6.230929 7.903329 0.000000 0.000000 0.000000 1.609308 0.393853 -6.133141 -1.992315 -2.584604 -4.815992 -1.021009 -2.401239 11.956285 0.146571 -0.201730 0.021213 -1.279387 -0.374577 14.159625 -0.658369 -2.434730 11.549592 0.000000 0.000000 0.000000 0.043824 0.349853 11.254037 -16.215742 -10.788005 0.483201 -54.403263 21.408702 8.340596 -0.792538 -29.352072 0.895263 0.000000 0.000000 0.000000 -3.396196 1.284995 10.664786 21.922450 4.704844 2.942222 50.118787 -16.354048 9.205758 -5.929607 25.430316 -4.105340 0.000000 0.000000 0.000000 
2.679396 34.570175 -3.661087 179.127995 3.135935 -178.895604 -2.771606 -2.941189 8.844450 -7.352896 5.465449 -26.034559 16.991089 9.594871 24.227799 -4.025375 6.078723 7.499484 0.000000 0.000000 0.000000 4.613927 0.611407 9.389416 -0.883491 7.836829 -23.153993 -7.722103 6.885025 21.091144 11.536625 6.291433 8.003593 0.000000 0.000000 0.000000 1.404948 0.354023 -6.380147 -2.084885 -2.532057 -4.990003 -1.078512 -2.422981 11.933974 0.134190 -0.255375 0.215972 -1.232465 -0.427281 14.164159 -0.561485 -2.331361 11.425098 0.000000 0.000000 0.000000 0.128905 0.215844 11.279137 -16.171772 -10.937221 0.547228 -54.456709 21.323856 8.200113 -0.838420 -29.540927 0.941754 0.000000 0.000000 0.000000 -3.393417 1.301595 10.671213 21.922126 4.742869 2.928259 50.093724 -16.336182 9.160674 -5.931756 25.419232 -4.103335 0.000000 0.000000 0.000000 
2.662292 34.569027 -3.680333 179.085771 3.311831 -178.876767 -2.781730 -2.974825 8.781002 -7.382734 5.423828 -25.913089 17.005653 9.601542 24.185278 -4.042391 6.079212 7.565867 0.000000 0.000000 0.000000 4.532008 0.504323 9.258918 -0.832232 7.778920 -23.105454 -7.656371 6.865068 21.142437 11.472273 6.201766 7.953373 0.000000 0.000000 0.000000 1.364934 0.174124 -6.426843 -2.187955 -2.553451 -4.970343 -1.061034 -2.524068 11.900726 0.160128 -0.259642 0.147285 -1.231952 -0.439625 14.198473 -0.545735 -2.254464 11.401828 0.000000 0.000000 0.000000 0.131811 0.417932 11.287834 -16.227840 -10.781831 0.559631 -54.337819 21.201775 8.154258 -0.780774 -29.711593 0.860510 0.000000 0.000000 0.000000 -3.385173 1.440057 10.798626 21.875137 4.942161 2.895046 50.076314 -16.248764 9.208000 -6.023882 25.469711 -4.190181 0.000000 0.000000 0.000000 
2.647461 34.567196 -3.715542 179.048478 3.554245 -178.852315 -2.778183 -3.006019 8.750347 -7.389488 5.393996 -25.789251 16.975882 9.645141 24.161408 -4.057388 6.071610 7.634748 0.000000 0.000000 0.000000 4.451779 0.399230 9.151516 -0.778789 7.692263 -23.091196 -7.565503 6.842168 21.236993 11.404528 6.098949 7.884032 0.000000 0.000000 0.000000 1.288990 0.179114 -6.481458 -2.270080 -2.317211 -4.991441 -1.016732 -2.490679 11.901476 0.202861 -0.239280 0.171541 -1.187258 -0.459899 14.195862 -0.593998 -2.188439 11.521361 0.000000 0.000000 0.000000 0.130660 0.257101 11.317890 -16.241775 -10.937786 0.642107 -54.313220 21.273094 8.081063 -0.655935 -29.978144 0.722150 0.000000 0.000000 0.000000 -3.397249 1.381253 10.815687 21.904951 4.906332 2.980954 50.099629 -16.216198 9.253100 -6.120819 25.578553 -4.230804 0.000000 0.000000 0.000000 
2.638561 34.564781 -3.759021 179.038342 3.794865 -178.832507 -2.752946 -3.021667 8.775395 -7.372075 5.379559 -25.706896 16.926074 9.710585 24.145497 -4.030649 6.095264 7.677379 0.000000 0.000000 0.000000 4.414770 0.312281 9.087879 -0.733312 7.584566 -23.120370 -7.450224 6.827360 21.379298 11.339298 6.005267 7.812778 0.000000 0.000000 0.000000 1.280282 0.219720 -6.489572 -2.378586 -2.092559 -5.071506 -0.992183 -2.459908 11.953174 0.163447 -0.380833 0.114493 -1.189975 -0.512375 14.189621 -0.610689 -2.091285 11.633851 0.000000 0.000000 0.000000 0.167014 0.250629 11.294254 -16.235467 -10.964850 0.679274 -54.083634 21.414738 8.071572 -0.816567 -30.221323 0.856002 0.000000 0.000000 0.000000 -3.378121 1.268623 10.753581 22.011635 4.901897 3.071733 50.121362 -16.178580 9.455360 -6.151617 25.762913 -4.292785 0.000000 0.000000 0.000000 
2.632546 34.562351 -3.784422 179.061168 3.987908 -178.827371 -2.704777 -3.005044 8.837568 -7.340783 5.353000 -25.672458 16.839305 9.799418 24.107462 -3.949048 6.163161 7.679643 0.000000 0.000000 0.000000 4.445547 0.300022 9.050320 -0.737567 7.466196 -23.174169 -7.322110 6.830561 21.552913 11.302472 5.937037 7.784529 0.000000 0.000000 0.000000 1.366535 -0.114684 -6.380623 -2.448637 -1.838328 -5.174329 -1.030009 -2.359262 11.834568 0.164232 -0.345453 0.132008 -1.245321 -0.486282 14.234263 -0.608759 -1.957698 11.713266 0.000000 0.000000 0.000000 0.152980 0.196409 11.299722 -16.228126 -10.867834 0.754906 -53.909201 21.604976 8.081109 -0.814010 -30.462289 0.822705 0.000000 0.000000 0.000000 -3.359671 1.215004 10.825144 22.166629 4.861250 3.133568 50.185604 -16.096874 9.573083 -6.247117 26.057305 -4.399140 0.000000 0.000000 0.000000 
2.624927 34.561047 -3.797403 179.027741 4.227417 -178.829570 -2.705922 -2.969238 8.935828 -7.330583 5.288252 -25.698653 16.715892 9.885079 24.057272 -3.827306 6.287078 7.632142 0.000000 0.000000 0.000000 4.447257 0.337532 9.010916 -0.799406 7.327568 -23.243600 -7.186687 6.860302 21.739174 11.302789 5.919030 7.819007 0.000000 0.000000 0.000000 1.263594 0.282984 -6.379488 -2.567679 -1.901456 -5.191522 -0.945572 -2.556286 11.927556 0.150564 -0.217276 0.183574 -1.128786 -0.529790 14.120524 -0.584986 -1.810718 12.006721 0.000000 0.000000 0.000000 0.180464 0.111520 11.204171 -16.312049 -11.084123 0.820117 -53.634368 21.717679 8.272611 -0.885600 -30.489046 0.827250 0.000000 0.000000 0.000000 -3.338989 1.206037 10.652077 22.277965 4.807324 3.243871 50.177302 -16.173060 9.818586 -6.289430 26.198534 -4.395415 0.000000 0.000000 0.000000 
2.613334 34.560646 -3.804839 179.006581 4.314291 -178.844651 -2.714770 -2.959895 9.036798 -7.307461 5.169516 -25.758604 16.587849 9.974152 24.054734 -3.681148 6.475014 7.575058 0.000000 0.000000 0.000000 4.472351 0.332583 8.953593 -0.898991 7.183021 -23.293843 -7.002815 6.906868 21.957523 11.261905 5.918531 7.896540 0.000000 0.000000 0.000000 1.255560 0.057855 -6.101689 -2.533537 -1.956363 -5.347344 -1.021259 -2.667159 11.739212 0.133910 -0.243801 0.158884 -1.310543 -0.557728 14.218321 -0.514751 -1.641554 12.145349 0.000000 0.000000 0.000000 0.108677 0.253612 11.223575 -16.395504 -10.779820 0.940491 -53.347128 21.825236 8.383189 -0.808919 -30.707602 0.708240 0.000000 0.000000 0.000000 -3.371977 1.325311 10.893527 22.360885 4.878990 3.219217 50.048225 -16.132377 10.144663 -6.474115 26.473924 -4.552586 0.000000 0.000000 0.000000 
2.606762 34.562302 -3.808172 179.038301 4.380953 -178.850867 -2.683202 -2.960913 9.126497 -7.213455 4.991136 -25.851300 16.426088 10.062796 24.110445 -3.554575 6.695126 7.532250 0.000000 0.000000 0.000000 4.547620 0.332073 8.865309 -1.011110 7.017553 -23.360693 -6.732992 6.962113 22.241502 11.144012 5.924014 7.996872 0.000000 0.000000 0.000000 1.387662 -0.056118 -6.117034 -2.586964 -1.641591 -5.211726 -1.077744 -2.437350 11.883828 0.168708 -0.327303 0.050282 -1.262576 -0.650225 14.062521 -0.409198 -1.501122 12.470333 0.000000 0.000000 0.000000 0.131312 0.099327 11.040110 -16.452551 -11.014659 0.950183 -53.027335 21.910873 8.649664 -0.934007 -30.579863 0.790499 0.000000 0.000000 0.000000 -3.373264 1.047348 10.537540 22.438536 4.686126 3.277763 49.735026 -16.216505 10.581953 -6.439800 26.643810 -4.503210 0.000000 0.000000 0.000000 
2.623959 34.557938 -3.829731 179.025501 4.342135 -178.865292 -2.659610 -2.937601 9.240951 -7.084033 4.758886 -26.008022 16.241558 10.134093 24.264462 -3.467573 6.928910 7.548237 0.000000 0.000000 0.000000 4.583760 0.313015 8.810531 -1.102203 6.797607 -23.472457 -6.353687 7.007881 22.662906 10.878382 5.903381 8.062844 0.000000 0.000000 0.000000 1.368461 0.020337 -5.824078 -2.593368 -1.694232 -5.290736 -1.086269 -2.511082 11.843353 0.161194 -0.354334 0.004185 -1.277510 -0.656988 14.083468 -0.285877 -1.390028 12.616431 0.000000 0.000000 0.000000 0.109555 0.118593 10.866212 -16.574239 -10.873479 0.938828 -52.623780 21.963957 8.970213 -0.981350 -30.494636 0.784862 0.000000 0.000000 0.000000 -3.377917 1.118762 10.500966 22.454891 4.600778 3.269558 49.342099 -16.360992 10.952303 -6.454742 26.880119 -4.456663 0.000000 0.000000 0.000000 
2.671629 34.546738 -3.847643 179.040842 4.214384 -178.884321 -2.586192 -2.863278 9.383293 -6.874848 4.535738 -26.290018 16.027584 10.185572 24.530028 -3.426981 7.145721 7.658530 0.000000 0.000000 0.000000 4.665958 0.353156 8.836386 -1.184673 6.515011 -23.709948 -5.854819 7.033647 23.253741 10.483188 5.856657 8.086969 0.000000 0.000000 0.000000 1.335488 0.212929 -5.403751 -2.647432 -1.763706 -5.263071 -0.985719 -2.596465 11.596644 0.154235 -0.260061 0.132072 -1.248728 -0.653948 13.891102 -0.101990 -1.262223 12.627737 0.000000 0.000000 0.000000 0.104557 0.155462 10.854084 -16.681841 -10.897856 1.068006 -52.203559 21.821928 9.215328 -0.952269 -30.738406 0.695122 0.000000 0.000000 0.000000 -3.396476 1.160831 10.368985 22.463725 4.414062 3.229501 48.911661 -16.516241 11.149957 -6.456929 27.160316 -4.459388 0.000000 0.000000 0.000000 
2.743326 34.534111 -3.819809 179.046237 4.002451 -178.925807 -2.525414 -2.803173 9.565918 -6.549305 4.355022 -26.778851 15.778302 10.243750 24.952298 -3.425891 7.317028 7.904568 0.000000 0.000000 0.000000 4.747884 0.458735 8.943361 -1.229641 6.116177 -24.115533 -5.265203 7.054161 23.997904 9.915812 5.765375 8.071461 0.000000 0.000000 0.000000 1.261440 0.312434 -4.854726 -2.622862 -1.747113 -5.120776 -0.858149 -2.561607 11.435939 0.116173 -0.230289 0.189744 -1.186464 -0.498361 13.548070 0.023661 -1.267289 12.607503 0.000000 0.000000 0.000000 0.102422 0.187582 10.519469 -16.730714 -10.893587 1.073820 -51.827171 21.581236 9.101086 -1.048116 -30.700389 0.700177 0.000000 0.000000 0.000000 -3.399038 1.157690 10.019164 22.442256 4.290316 3.169282 48.534119 -16.601753 11.193395 -6.426831 27.349659 -4.431314 0.000000 0.000000 0.000000 
2.822328 34.516819 -3.695405 179.129456 3.737382 -178.994792 -2.427836 -2.839934 9.745845 -6.122042 4.278839 -27.504888 15.545852 10.329926 25.601574 -3.437113 7.429656 8.309136 0.000000 0.000000 0.000000 4.921042 0.631724 9.086229 -1.282619 5.619015 -24.691745 -4.602832 7.084510 24.867703 9.304102 5.672058 8.062541 0.000000 0.000000 0.000000 1.460692 0.412033 -4.115344 -2.665554 -1.644102 -4.866232 -0.997394 -2.398492 11.254062 0.104338 -0.157328 0.232935 -1.077623 -0.742959 13.133048 0.150534 -1.279935 12.454123 0.000000 0.000000 0.000000 0.268536 0.075385 10.214627 -16.694866 -11.025952 0.994424 -51.501412 20.982507 9.075960 -1.004597 -30.519686 0.556273 0.000000 0.000000 0.000000 -3.287380 1.061668 9.555116 22.404045 4.144693 3.151239 48.144361 -16.476569 11.042120 -6.296157 27.429399 -4.374921 0.000000 0.000000 0.000000 
